<svg width="90" height="90" viewBox="0 0 90 90" fill="none" xmlns="http://www.w3.org/2000/svg">
<path d="M35.1562 27.9228H41.6514V57.6562C41.6514 58.0429 41.9678 58.3593 42.3545 58.3593H47.6279C48.0147 58.3593 48.3311 58.0429 48.3311 57.6562V27.9228H54.8438C55.4326 27.9228 55.7578 27.246 55.3975 26.789L45.5537 14.3261C45.4879 14.2421 45.4039 14.1741 45.308 14.1274C45.212 14.0806 45.1067 14.0563 45 14.0563C44.8933 14.0563 44.788 14.0806 44.692 14.1274C44.5961 14.1741 44.5121 14.2421 44.4463 14.3261L34.6025 26.7802C34.2422 27.246 34.5674 27.9228 35.1562 27.9228ZM77.168 55.0195H71.8945C71.5078 55.0195 71.1914 55.3359 71.1914 55.7226V69.2577H18.8086V55.7226C18.8086 55.3359 18.4922 55.0195 18.1055 55.0195H12.832C12.4453 55.0195 12.1289 55.3359 12.1289 55.7226V73.1249C12.1289 74.6806 13.3857 75.9374 14.9414 75.9374H75.0586C76.6143 75.9374 77.8711 74.6806 77.8711 73.1249V55.7226C77.8711 55.3359 77.5547 55.0195 77.168 55.0195Z" fill="#162E71"/>
</svg>
