<svg width="105" height="105" viewBox="0 0 105 105" fill="none" xmlns="http://www.w3.org/2000/svg">
<path d="M52.5 98.4375C27.1318 98.4375 6.5625 77.8682 6.5625 52.5C6.5625 27.1318 27.1318 6.5625 52.5 6.5625C77.8682 6.5625 98.4375 27.1318 98.4375 52.5C98.4375 77.8682 77.8682 98.4375 52.5 98.4375ZM72.1875 50.0391C72.1875 49.5879 71.8184 49.2188 71.3672 49.2188H55.7812V33.6328C55.7812 33.1816 55.4121 32.8125 54.9609 32.8125H50.0391C49.5879 32.8125 49.2188 33.1816 49.2188 33.6328V49.2188H33.6328C33.1816 49.2188 32.8125 49.5879 32.8125 50.0391V54.9609C32.8125 55.4121 33.1816 55.7812 33.6328 55.7812H49.2188V71.3672C49.2188 71.8184 49.5879 72.1875 50.0391 72.1875H54.9609C55.4121 72.1875 55.7812 71.8184 55.7812 71.3672V55.7812H71.3672C71.8184 55.7812 72.1875 55.4121 72.1875 54.9609V50.0391Z" fill="#162E71"/>
</svg>
