<svg width="60" height="60" viewBox="0 0 60 60" fill="none" xmlns="http://www.w3.org/2000/svg">
<path d="M35.628 5.938L47.504 17.814V53.442H11.876V5.938H35.628ZM35.628 17.814H44.535L35.628 8.907V17.814ZM23.752 10.3915V16.3295L29.0962 13.3605L23.752 10.3915ZM32.659 14.845L27.3148 17.814L32.659 20.783V14.845ZM23.752 19.2985V25.2365L29.0962 22.2675L23.752 19.2985ZM32.659 23.752L27.3148 26.721L32.659 29.69V23.752ZM23.752 28.2055V34.1435L29.0962 31.1745L23.752 28.2055ZM32.659 32.659L27.3148 35.628L32.659 38.597V32.659ZM28.2055 50.473C30.6697 50.473 33.0153 48.3353 32.659 45.6335C32.5105 44.5053 31.2042 40.8534 31.2042 40.8534L25.2959 37.5875C25.2959 37.5875 23.9598 43.3771 23.752 45.6335C23.5441 47.9197 25.7412 50.473 28.2055 50.473ZM28.2055 43.3771C29.4525 43.3771 30.4619 44.3866 30.4619 45.6335C30.4619 46.9102 29.4525 47.9197 28.2055 47.9197C26.9585 47.9197 25.949 46.9102 25.949 45.6335C25.949 44.3866 26.9585 43.3771 28.2055 43.3771Z" fill="#BD4872"/>
</svg>
