<svg width="79" height="71" viewBox="0 0 79 71" fill="none" xmlns="http://www.w3.org/2000/svg">
<g clip-path="url(#clip0)">
<path fill-rule="evenodd" clip-rule="evenodd" d="M29.7498 16.094C29.7498 15.5178 30.0081 14.9651 30.468 14.5577C30.9279 14.1502 31.5516 13.9213 32.202 13.9213H71.4383C72.0887 13.9213 72.7125 14.1502 73.1724 14.5577C73.6322 14.9651 73.8906 15.5178 73.8906 16.094V55.2027C73.8906 55.779 73.6322 56.3316 73.1724 56.7391C72.7125 57.1465 72.0887 57.3755 71.4383 57.3755H32.202C31.5516 57.3755 30.9279 57.1465 30.468 56.7391C30.0081 56.3316 29.7498 55.779 29.7498 55.2027V46.5119C29.7498 45.9357 29.4914 45.383 29.0315 44.9756C28.5716 44.5681 27.9479 44.3392 27.2975 44.3392C26.6471 44.3392 26.0234 44.5681 25.5635 44.9756C25.1036 45.383 24.8452 45.9357 24.8452 46.5119V55.2027C24.8452 56.9315 25.6203 58.5894 27 59.8118C28.3796 61.0341 30.2509 61.7209 32.202 61.7209H71.4383C73.3895 61.7209 75.2607 61.0341 76.6404 59.8118C78.0201 58.5894 78.7951 56.9315 78.7951 55.2027V16.094C78.7951 14.3653 78.0201 12.7074 76.6404 11.485C75.2607 10.2626 73.3895 9.57587 71.4383 9.57587H32.202C30.2509 9.57587 28.3796 10.2626 27 11.485C25.6203 12.7074 24.8452 14.3653 24.8452 16.094V24.7848C24.8452 25.3611 25.1036 25.9137 25.5635 26.3212C26.0234 26.7286 26.6471 26.9575 27.2975 26.9575C27.9479 26.9575 28.5716 26.7286 29.0315 26.3212C29.4914 25.9137 29.7498 25.3611 29.7498 24.7848V16.094Z" fill="#162E71"/>
<path fill-rule="evenodd" clip-rule="evenodd" d="M58.4609 37.1866C58.6893 36.9848 58.8705 36.745 58.9941 36.4811C59.1177 36.2171 59.1814 35.9341 59.1814 35.6483C59.1814 35.3626 59.1177 35.0796 58.9941 34.8156C58.8705 34.5517 58.6893 34.3119 58.4609 34.1101L43.7473 21.0738C43.5193 20.8718 43.2486 20.7116 42.9507 20.6022C42.6528 20.4929 42.3335 20.4366 42.0111 20.4366C41.6887 20.4366 41.3694 20.4929 41.0715 20.6022C40.7736 20.7116 40.5029 20.8718 40.2749 21.0738C40.0469 21.2758 39.866 21.5157 39.7426 21.7796C39.6192 22.0435 39.5557 22.3264 39.5557 22.6121C39.5557 22.8978 39.6192 23.1807 39.7426 23.4446C39.866 23.7085 40.0469 23.9484 40.2749 24.1504L50.8049 33.4756H7.67932C7.02894 33.4756 6.40519 33.7045 5.9453 34.112C5.48541 34.5195 5.22705 35.0721 5.22705 35.6483C5.22705 36.2246 5.48541 36.7772 5.9453 37.1847C6.40519 37.5921 7.02894 37.8211 7.67932 37.8211H50.8049L40.2749 47.1463C40.0469 47.3483 39.866 47.5881 39.7426 47.8521C39.6192 48.116 39.5557 48.3989 39.5557 48.6846C39.5557 48.9703 39.6192 49.2532 39.7426 49.5171C39.866 49.781 40.0469 50.0209 40.2749 50.2229C40.5029 50.4249 40.7736 50.5851 41.0715 50.6945C41.3694 50.8038 41.6887 50.86 42.0111 50.86C42.3335 50.86 42.6528 50.8038 42.9507 50.6945C43.2486 50.5851 43.5193 50.4249 43.7473 50.2229L58.4609 37.1866Z" fill="#162E71"/>
</g>
<defs>
<clipPath id="clip0">
<rect width="78.4726" height="69.5267" fill="white" transform="translate(0.322754 0.88504)"/>
</clipPath>
</defs>
</svg>
