<svg width="100" height="100" viewBox="0 0 100 100" fill="none" xmlns="http://www.w3.org/2000/svg">
<path d="M7.56835 49.3164L47.793 9.12107C48.0826 8.83088 48.4266 8.60065 48.8053 8.44357C49.184 8.28648 49.59 8.20563 50 8.20563C50.41 8.20563 50.816 8.28648 51.1947 8.44357C51.5734 8.60065 51.9174 8.83088 52.207 9.12107L92.4316 49.3164C93.6035 50.4883 94.2676 52.0801 94.2676 53.7402C94.2676 57.1875 91.4648 59.9902 88.0176 59.9902H83.7793V88.6718C83.7793 90.4004 82.3828 91.7968 80.6543 91.7968H56.25V69.9218H45.3125V91.7968H19.3457C17.6172 91.7968 16.2207 90.4004 16.2207 88.6718V59.9902H11.9824C10.3223 59.9902 8.73047 59.3359 7.55859 58.1543C5.12695 55.7129 5.12695 51.7578 7.56835 49.3164Z" fill="#162E71"/>
</svg>
