<svg width="59" height="59" viewBox="0 0 59 59" fill="none" xmlns="http://www.w3.org/2000/svg">
<path d="M49.2397 16.6169L36.8404 4.22474C36.4947 3.8794 36.0223 3.6837 35.5325 3.6837H11.0625C10.0427 3.6837 9.21875 4.50678 9.21875 5.52555V53.4137C9.21875 54.4324 10.0427 55.2555 11.0625 55.2555H47.9375C48.9573 55.2555 49.7813 54.4324 49.7813 53.4137V17.9177C49.7813 17.4285 49.5854 16.9623 49.2397 16.6169ZM23.0469 23.1382C24.3202 23.1382 25.3516 24.1685 25.3516 25.4406C25.3516 26.7126 24.3202 27.7429 23.0469 27.7429C21.7735 27.7429 20.7422 26.7126 20.7422 25.4406C20.7422 24.1685 21.7735 23.1382 23.0469 23.1382ZM40.1016 40.0602H18.8984C18.5124 40.0602 18.2992 39.617 18.5355 39.3177L24.2856 31.9964C24.3288 31.9414 24.3839 31.8968 24.4467 31.8662C24.5096 31.8356 24.5787 31.8197 24.6486 31.8197C24.7186 31.8197 24.7876 31.8356 24.8505 31.8662C24.9134 31.8968 24.9685 31.9414 25.0116 31.9964L27.3797 35.0124L31.8623 29.3027C31.9054 29.2476 31.9605 29.2031 32.0234 29.1725C32.0863 29.1419 32.1553 29.126 32.2253 29.126C32.2953 29.126 32.3643 29.1419 32.4272 29.1725C32.4901 29.2031 32.5452 29.2476 32.5883 29.3027L40.453 39.3177C40.7008 39.617 40.4818 40.0602 40.1016 40.0602ZM34.6856 18.7638V7.93147L45.5291 18.7638H34.6856Z" fill="#0C9221"/>
</svg>
