<svg width="54" height="59" viewBox="0 0 54 59" fill="none" xmlns="http://www.w3.org/2000/svg">
<g clip-path="url(#clip0)">
<path fill-rule="evenodd" clip-rule="evenodd" d="M26.4999 53.6944C32.759 53.6944 38.7618 51.208 43.1876 46.7821C47.6135 42.3563 50.0999 36.3535 50.0999 30.0944C50.0999 23.8353 47.6135 17.8326 43.1876 13.4067C38.7618 8.98084 32.759 6.49442 26.4999 6.49442C20.2408 6.49442 14.238 8.98084 9.81218 13.4067C5.38632 17.8326 2.8999 23.8353 2.8999 30.0944C2.8999 36.3535 5.38632 42.3563 9.81218 46.7821C14.238 51.208 20.2408 53.6944 26.4999 53.6944ZM17.6499 27.1444H11.7499V33.0444H17.6499V27.1444ZM41.2499 27.1444H35.3499V33.0444H41.2499V27.1444ZM23.5499 27.1444H29.4499V33.0444H23.5499V27.1444Z" fill="#6B4CFE"/>
</g>
<defs>
<clipPath id="clip0">
<rect width="53.8696" height="59" fill="white"/>
</clipPath>
</defs>
</svg>
